HIERARCHY
ROOT SpineBase
{
  OFFSET 0.000000 0.000000 0.000000
  CHANNELS 6 Xposition Yposition Zposition Zrotation Xrotation Yrotation
  JOINT SpineMid
  {
    OFFSET 0.000000 31.332369 0.000000
    CHANNELS 3 Zrotation Xrotation Yrotation
    JOINT SpineShoulder
    {
      OFFSET 0.217132 23.239671 -0.596998
      CHANNELS 3 Zrotation Xrotation Yrotation
      JOINT Neck
      {
        OFFSET 0.120226 7.691781 -0.497209
        CHANNELS 3 Zrotation Xrotation Yrotation
        JOINT Head
        {
          OFFSET 3.852179 13.472064 3.811772
          CHANNELS 3 Zrotation Xrotation Yrotation
          End Site
          {
            OFFSET 0 0 0
          }
        }
      }
      JOINT ShoulderLeft
      {
        OFFSET -11.673166 -2.701441 -11.017963
        CHANNELS 3 Zrotation Xrotation Yrotation
        JOINT ElbowLeft
        {
          OFFSET -7.288766 -23.939901 -6.641998
          CHANNELS 3 Zrotation Xrotation Yrotation
          JOINT WristLeft
          {
            OFFSET 0.781310 -22.562517 -7.849313
            CHANNELS 3 Zrotation Xrotation Yrotation
            JOINT HandLeft
            {
              OFFSET -0.465023 -8.666895 -0.461923
              CHANNELS 3 Zrotation Xrotation Yrotation
              JOINT HandTipLeft
              {
                OFFSET 0.163048 -8.099734 -1.288420
                CHANNELS 3 Zrotation Xrotation Yrotation
                End Site
                {
                  OFFSET 0 0 0
                }
              }
              JOINT ThumbLeft
              {
                OFFSET -0.309886 -4.487576 -3.806793
                CHANNELS 3 Zrotation Xrotation Yrotation
                End Site
                {
                  OFFSET 0 0 0
                }
              }
            }
          }
        }
      }
      JOINT ShoulderRight
      {
        OFFSET 13.461005 -4.345500 10.985625
        CHANNELS 3 Zrotation Xrotation Yrotation
        JOINT ElbowRight
        {
          OFFSET 4.322675 -25.627132 8.024557
          CHANNELS 3 Zrotation Xrotation Yrotation
          JOINT WristRight
          {
            OFFSET 4.349642 -24.105477 1.705905
            CHANNELS 3 Zrotation Xrotation Yrotation
            JOINT HandRight
            {
              OFFSET 3.514521 -8.518867 1.823115
              CHANNELS 3 Zrotation Xrotation Yrotation
              JOINT HandTipRight
              {
                OFFSET 1.498760 -5.718576 -0.176313
                CHANNELS 3 Zrotation Xrotation Yrotation
                End Site
                {
                  OFFSET 0 0 0
                }
              }
              JOINT ThumbRight
              {
                OFFSET 3.249752 -1.270113 -3.720329
                CHANNELS 3 Zrotation Xrotation Yrotation
                End Site
                {
                  OFFSET 0 0 0
                }
              }
            }
          }
        }
      }
    }
  }
  JOINT HipLeft
  {
    OFFSET -4.694360 1.492811 -7.226931
    CHANNELS 3 Zrotation Xrotation Yrotation
    JOINT KneeLeft
    {
      OFFSET -9.292279 -36.652301 -3.978710
      CHANNELS 3 Zrotation Xrotation Yrotation
      JOINT AnkleLeft
      {
        OFFSET -5.723518 -38.103805 6.946433
        CHANNELS 3 Zrotation Xrotation Yrotation
        JOINT FootLeft
        {
          OFFSET 1.224324 -7.911693 -6.483344
          CHANNELS 3 Zrotation Xrotation Yrotation
          End Site
          {
            OFFSET 0 0 0
          }
        }
      }
    }
  }
  JOINT HipRight
  {
    OFFSET 5.510585 0.222844 0.341957
    CHANNELS 3 Zrotation Xrotation Yrotation
    JOINT KneeRight
    {
      OFFSET -2.464834 -38.738660 3.939785
      CHANNELS 3 Zrotation Xrotation Yrotation
      JOINT AnkleRight
      {
        OFFSET -4.220751 -36.132366 7.636958
        CHANNELS 3 Zrotation Xrotation Yrotation
        JOINT FootRight
        {
          OFFSET 3.925936 -7.651671 -5.205320
          CHANNELS 3 Zrotation Xrotation Yrotation
          End Site
          {
            OFFSET 0 0 0
          }
        }
      }
    }
  }
}
MOTION
Frames: 11
Frame Time: 0.033333
-32.846295 86.527577 341.924142 -2.729197 0.816316 -42.908604 0.393614 0.432298 42.868641 0.359168 0.176572 -0.063157 -3.557246 -3.381554 2.107965 0.000000 0.000000 0.000000 9.732952 8.676634 -5.541843 -5.282444 -0.811211 4.140059 4.391566 17.465346 -1.981703 -7.490126 -10.688125 0.404807 0.000000 0.000000 0.000000 0.000000 0.000000 0.000000 10.214508 16.169807 4.766698 5.653788 -8.737884 -1.123498 -2.002847 -13.606119 -0.438637 -4.527481 -8.170247 -3.624587 0.000000 0.000000 0.000000 0.000000 0.000000 0.000000 5.769430 0.827839 43.255277 -3.879820 4.985190 -0.955471 -0.125414 -2.204121 2.342638 0.000000 0.000000 0.000000 1.845728 2.444488 42.866108 -2.333148 0.380660 -0.599514 -0.080024 3.360428 4.648674 0.000000 0.000000 0.000000
-33.589723 86.695412 342.611294 -3.787368 0.732918 -44.983629 0.297798 0.356252 44.918597 0.733714 0.066123 -0.081569 -0.288426 -1.789113 1.215956 0.000000 0.000000 0.000000 23.414776 12.756994 -12.242739 -4.749717 -1.430027 4.892097 -3.053119 14.921918 0.592171 7.628276 1.646382 1.233036 0.000000 0.000000 0.000000 0.000000 0.000000 0.000000 13.327014 26.295576 6.177966 14.265552 -5.618764 2.184252 -9.796013 -14.788785 0.996220 -2.881233 -10.863594 -6.553377 0.000000 0.000000 0.000000 0.000000 0.000000 0.000000 6.687535 2.607305 45.045061 -4.393749 4.708846 -0.773367 -0.046849 -1.388663 2.206328 0.000000 0.000000 0.000000 2.264048 4.697814 44.962580 -2.889816 -0.475791 -0.631827 -1.780875 1.531135 4.804869 0.000000 0.000000 0.000000
-34.354178 86.877181 343.234205 -2.784120 0.494095 -46.367743 0.415749 0.609176 46.325018 0.853668 -0.022371 -0.024101 -0.479996 0.267189 0.317532 0.000000 0.000000 0.000000 36.243581 20.668344 -23.642935 -4.243083 -4.584614 8.249995 -0.787735 18.096315 0.732585 10.918849 3.999499 0.809966 0.000000 0.000000 0.000000 0.000000 0.000000 0.000000 18.203442 33.165373 6.788222 23.251528 -1.533811 5.007908 -10.910047 -17.050720 5.732949 -7.485212 -9.365320 -10.493114 0.000000 0.000000 0.000000 0.000000 0.000000 0.000000 6.041108 3.079407 46.240998 -5.020468 4.402064 -0.576538 -0.224141 -0.632473 2.275612 0.000000 0.000000 0.000000 1.174057 5.397954 46.397066 -3.608829 -1.173566 -0.717092 -3.630852 -1.489991 4.549782 0.000000 0.000000 0.000000
-34.803405 87.136375 343.695832 -2.539774 0.477549 -46.786986 0.430767 0.873129 46.756025 0.833792 -0.070398 -0.007389 -1.384702 2.026993 -0.074669 0.000000 0.000000 0.000000 50.304788 26.908237 -37.001895 -3.088928 -3.420095 11.387395 4.695421 22.136411 -0.169465 3.929871 -0.983723 1.005180 0.000000 0.000000 0.000000 0.000000 0.000000 0.000000 32.652498 41.088758 6.071291 27.089746 -2.061335 5.594805 -5.865398 -18.531007 15.205027 -12.677505 -5.601257 -15.732658 0.000000 0.000000 0.000000 0.000000 0.000000 0.000000 5.831283 3.596979 46.488605 -5.308300 3.990604 -0.414048 -0.609194 -0.029436 2.499942 0.000000 0.000000 0.000000 0.826831 5.896923 46.839257 -3.988841 -1.592664 -0.770156 -6.090698 -5.469869 4.038919 0.000000 0.000000 0.000000
-34.977071 87.415813 343.938744 -2.797354 0.684027 -47.210610 0.742289 1.101430 47.186538 0.898726 -0.268354 0.004449 -2.105624 3.368736 -0.259410 0.000000 0.000000 0.000000 64.948777 33.410936 -53.874090 -0.959820 -1.546195 15.697844 12.133198 26.759141 -1.246542 -9.080669 -7.317465 -2.676913 0.000000 0.000000 0.000000 0.000000 0.000000 0.000000 58.266540 45.864987 1.861669 19.798695 -2.179549 -2.991837 -5.817025 -18.469491 20.693128 -8.979030 -6.257984 -18.588704 0.000000 0.000000 0.000000 0.000000 0.000000 0.000000 6.010476 4.013984 46.807102 -5.415916 3.690728 -0.329330 -1.021322 0.288014 2.824286 0.000000 0.000000 0.000000 1.077470 6.158919 47.274294 -4.134720 -1.647732 -0.800903 -9.220298 -10.420640 3.118438 0.000000 0.000000 0.000000
-34.556902 88.189732 344.103637 -2.719848 0.626444 -47.695903 0.929004 1.110735 47.671988 1.273494 -0.686008 0.046747 -3.934339 5.144748 -0.177626 0.000000 0.000000 0.000000 80.099013 40.727156 -75.698990 3.241381 3.139416 21.813504 11.540323 27.507808 -0.696023 -15.651927 -11.707382 -5.951734 0.000000 0.000000 0.000000 0.000000 0.000000 0.000000 80.817615 44.730717 -1.616132 17.331273 -1.865152 -11.211841 -5.366063 -18.139274 26.596496 -6.014214 -6.670436 -21.018492 0.000000 0.000000 0.000000 0.000000 0.000000 0.000000 5.382055 3.874577 47.307781 -5.055067 3.468334 -0.352341 -1.337104 0.166985 3.165559 0.000000 0.000000 0.000000 0.565627 5.937442 47.734094 -3.790807 -1.688188 -0.768336 -5.835040 -6.989362 3.158910 0.000000 0.000000 0.000000
-33.604821 89.380105 343.928659 -2.326989 0.582255 -48.669376 0.937232 1.035312 48.650260 0.930862 -0.561662 0.033722 -5.468534 5.423584 0.248946 0.000000 0.000000 0.000000 97.424623 46.001198 -100.589760 4.757368 6.644814 29.642245 11.656358 29.812013 -2.403619 -19.822282 -16.244653 -9.033339 0.000000 0.000000 0.000000 0.000000 0.000000 0.000000 98.753718 40.628610 -0.433113 17.857023 -4.150952 -16.548439 -9.333602 -16.816910 28.442251 -1.044215 -6.939172 -22.759873 0.000000 0.000000 0.000000 0.000000 0.000000 0.000000 4.730376 2.779558 48.531260 -4.371444 3.909516 -0.569421 -1.797699 -0.426031 3.656134 0.000000 0.000000 0.000000 -0.424280 4.911235 48.635344 -2.870586 -1.585885 -0.653993 -6.163659 -7.693937 3.029234 0.000000 0.000000 0.000000
-32.610927 90.750529 343.813898 -2.152995 0.255569 -48.970351 0.959723 0.938464 48.945932 0.815113 -0.147353 0.023365 -6.583820 5.310729 0.632223 0.000000 0.000000 0.000000 114.433037 49.169146 -125.873234 3.577839 10.351036 36.819526 8.407971 28.059356 -3.846067 -21.357522 -14.692192 -15.032977 0.000000 0.000000 0.000000 0.000000 0.000000 0.000000 111.313540 34.214913 5.944676 18.306282 -8.370749 -19.593263 -13.671691 -11.837367 26.616418 1.081866 -7.578728 -24.520090 0.000000 0.000000 0.000000 0.000000 0.000000 0.000000 3.937935 2.162254 48.985475 -3.821856 4.150680 -0.748748 -2.126449 -1.353563 4.069078 0.000000 0.000000 0.000000 -1.281158 4.302270 48.867782 -2.123383 -1.518701 -0.561300 -6.234644 -8.257845 2.793094 0.000000 0.000000 0.000000
-32.049722 92.267457 343.066329 -2.644990 0.549357 -47.800293 1.496426 0.630553 47.767130 0.300946 -0.624408 -0.020717 -6.578360 5.524321 1.158275 0.000000 0.000000 0.000000 135.657497 53.958667 -157.206982 1.405461 14.205185 44.519386 6.331031 25.087791 -5.709152 -22.766783 -10.606730 -24.417642 0.000000 0.000000 0.000000 0.000000 0.000000 0.000000 119.789091 24.524125 17.331211 18.555140 -14.931734 -18.248607 -20.020386 -6.075962 20.907030 4.605037 -11.388432 -21.265943 0.000000 0.000000 0.000000 0.000000 0.000000 0.000000 4.818206 1.778447 47.961495 -3.984565 4.723094 -0.922643 -2.349204 -2.508949 4.396823 0.000000 0.000000 0.000000 0.141154 3.606239 47.705065 -2.051210 -0.484141 -0.577649 -5.812485 -7.220273 3.108137 0.000000 0.000000 0.000000
-31.312425 93.589386 342.429481 -2.734721 0.480494 -46.003693 1.291646 0.181160 45.957421 0.230588 -0.708461 -0.048243 -5.683717 5.026038 1.292059 0.000000 0.000000 0.000000 163.834872 56.947817 163.455450 -2.159141 16.223206 51.522341 3.849883 22.406051 -16.122445 -22.288355 -14.226304 -27.086266 0.000000 0.000000 0.000000 0.000000 0.000000 0.000000 125.399915 9.075554 37.027417 12.821898 -19.944229 -18.678496 -12.558489 5.871382 10.399021 -5.707411 -14.624811 -15.232767 0.000000 0.000000 0.000000 0.000000 0.000000 0.000000 4.919541 1.288266 46.290210 -4.008301 5.091226 -1.071814 -2.352641 -3.911184 4.512354 0.000000 0.000000 0.000000 0.582010 2.783606 45.886815 -1.651918 0.206452 -0.542085 -4.945878 -5.563263 3.447081 0.000000 0.000000 0.000000
-30.569603 94.890578 341.881212 -2.586515 0.258121 -44.215837 0.886886 -0.449971 44.152847 0.167757 -0.772501 -0.076066 -3.533193 5.064737 0.943784 0.000000 0.000000 0.000000 -167.477961 55.162074 125.861901 -9.570550 14.813302 51.475867 -1.142549 19.961956 -43.615958 -3.807214 -21.141159 1.983116 0.000000 0.000000 0.000000 0.000000 0.000000 0.000000 129.834696 -7.896984 56.796645 10.467121 -20.499493 -23.004052 -19.016802 -9.254599 21.503730 7.336220 5.899828 -35.827895 0.000000 0.000000 0.000000 0.000000 0.000000 0.000000 4.540315 0.806614 44.598739 -3.921542 5.260252 -1.188218 -2.154875 -4.664255 4.533960 0.000000 0.000000 0.000000 0.670357 2.005757 44.085896 -1.321891 0.741188 -0.510879 -6.099958 -7.498762 2.966712 0.000000 0.000000 0.000000
